<?xml version="1.0" standalone="no"?>
<!DOCTYPE svg PUBLIC "-//W3C//DTD SVG 20010904//EN"
 "http://www.w3.org/TR/2001/REC-SVG-20010904/DTD/svg10.dtd">
<svg version="1.0" xmlns="http://www.w3.org/2000/svg"
 width="500.000000pt" height="500.000000pt" viewBox="0 0 500.000000 500.000000"
 preserveAspectRatio="xMidYMid meet">

<g transform="translate(0.000000,500.000000) scale(0.100000,-0.100000)"
fill="#000000" stroke="none">
<path d="M1010 4398 c0 -13 -9 -214 -20 -448 -26 -551 -26 -520 3 -520 13 0
31 8 39 18 8 9 77 127 153 262 171 305 207 360 289 438 85 81 180 127 296 141
47 6 194 11 327 11 l243 0 0 60 0 60 -665 0 -665 0 0 -22z"/>
<path d="M2476 4404 c-24 -24 -20 -61 9 -80 23 -15 27 -15 50 0 32 21 33 59 3
80 -28 20 -43 20 -62 0z"/>
<path d="M2660 4360 l0 -60 186 0 c158 0 185 -2 181 -14 -3 -8 -87 -162 -186
-341 l-181 -326 0 -861 c0 -503 4 -858 9 -852 5 5 310 554 677 1219 535 969
670 1218 672 1253 l4 42 -681 0 -681 0 0 -60z"/>
<path d="M1618 1732 c-583 -1055 -718 -1306 -718 -1335 l0 -37 720 0 720 0 0
60 0 60 -225 0 c-124 0 -225 2 -225 5 0 3 101 189 225 413 l225 408 -2 862 -3
863 -717 -1299z"/>
<path d="M2370 2925 c0 -20 3 -26 9 -17 5 9 30 12 87 10 l79 -3 -87 -64 c-81
-58 -88 -66 -88 -98 0 -33 1 -34 22 -19 17 12 48 16 125 16 87 0 104 -3 112
-17 9 -15 10 -12 11 17 0 22 -3 30 -8 22 -6 -9 -34 -12 -101 -10 l-91 3 96 70
c54 39 99 76 102 83 3 9 -26 12 -120 12 -83 0 -128 4 -136 12 -9 9 -12 5 -12
-17z"/>
<path d="M2628 2601 c-1 -6 -59 -30 -128 -54 -156 -54 -165 -71 -60 -102 23
-7 24 -6 6 7 -17 13 -15 15 24 27 23 7 49 15 57 18 13 5 15 -2 12 -40 -2 -26
-1 -47 3 -47 5 0 8 20 8 45 0 49 22 71 66 62 23 -4 24 -1 24 44 0 46 -4 61
-12 40z"/>
<path d="M2630 2399 c0 -6 -9 -8 -22 -4 -22 6 -22 5 -3 -6 11 -7 23 -17 27
-23 4 -6 8 1 8 17 0 15 -2 27 -5 27 -3 0 -5 -5 -5 -11z"/>
<path d="M2370 2242 c0 -13 4 -21 9 -17 10 6 121 -45 121 -55 0 -11 -109 -52
-120 -45 -6 4 -10 -12 -10 -43 l0 -49 83 43 c85 45 150 57 175 32 9 -9 12 0
11 43 0 29 -3 48 -6 42 -3 -9 -26 -13 -64 -13 -47 0 -73 7 -122 31 -34 17 -65
37 -69 43 -5 6 -8 1 -8 -12z"/>
<path d="M2370 1880 l0 -45 135 0 135 0 0 45 c0 34 -3 41 -12 32 -8 -8 -50
-12 -123 -12 -73 0 -115 4 -123 12 -9 9 -12 2 -12 -32z"/>
<path d="M3899 1093 c-161 -303 -218 -391 -307 -474 -134 -127 -185 -139 -609
-139 l-323 0 0 -60 0 -60 695 0 c382 0 695 1 695 3 3 28 40 862 40 910 l0 67
-29 0 c-28 0 -35 -11 -162 -247z"/>
<path d="M2476 454 c-24 -24 -20 -61 9 -80 23 -15 27 -15 50 0 32 21 33 59 3
80 -28 20 -43 20 -62 0z"/>
</g>
</svg>
